<mxfile host="app.diagrams.net" modified="2024-06-19T15:46:14.527Z" agent="Mozilla/5.0 (X11; Linux x86_64) AppleWebKit/537.36 (KHTML, like Gecko) Chrome/126.0.0.0 Safari/537.36" etag="HdvAQ8g3cxk4q2ZZdEUU" version="24.5.5" type="github">
  <diagram name="Page-1" id="m8KckDBnLmi3Fg9_RwGV">
    <mxGraphModel dx="1364" dy="756" grid="0" gridSize="10" guides="0" tooltips="1" connect="1" arrows="1" fold="1" page="0" pageScale="1" pageWidth="850" pageHeight="1100" math="0" shadow="0">
      <root>
        <mxCell id="0" />
        <mxCell id="1" parent="0" />
        <mxCell id="qMudk2F243AdnrHXbzsQ-1" value="&lt;font style=&quot;font-size: 36px;&quot;&gt;Display Encoder&lt;/font&gt;" style="text;html=1;align=center;verticalAlign=middle;resizable=0;points=[];autosize=1;strokeColor=none;fillColor=none;" parent="1" vertex="1">
          <mxGeometry x="660" y="30" width="290" height="60" as="geometry" />
        </mxCell>
        <mxCell id="qMudk2F243AdnrHXbzsQ-10" style="edgeStyle=none;rounded=0;orthogonalLoop=1;jettySize=auto;html=1;exitX=1;exitY=0.5;exitDx=0;exitDy=0;" parent="1" source="qMudk2F243AdnrHXbzsQ-3" edge="1">
          <mxGeometry relative="1" as="geometry">
            <mxPoint x="632" y="403.0344827586207" as="targetPoint" />
          </mxGeometry>
        </mxCell>
        <mxCell id="qMudk2F243AdnrHXbzsQ-20" value="Data" style="edgeLabel;html=1;align=center;verticalAlign=middle;resizable=0;points=[];" parent="qMudk2F243AdnrHXbzsQ-10" vertex="1" connectable="0">
          <mxGeometry x="0.0602" relative="1" as="geometry">
            <mxPoint as="offset" />
          </mxGeometry>
        </mxCell>
        <mxCell id="qMudk2F243AdnrHXbzsQ-3" value="Memory&lt;div&gt;&lt;br&gt;&lt;/div&gt;&lt;div&gt;&lt;br&gt;&lt;/div&gt;&lt;div&gt;&lt;br&gt;&lt;/div&gt;&lt;div&gt;&lt;br&gt;&lt;/div&gt;&lt;div&gt;&lt;br&gt;&lt;/div&gt;&lt;div&gt;&lt;br&gt;&lt;/div&gt;&lt;div&gt;&lt;br&gt;&lt;/div&gt;&lt;div&gt;&lt;br&gt;&lt;/div&gt;&lt;div&gt;&lt;br&gt;&lt;/div&gt;&lt;div&gt;&lt;br&gt;&lt;/div&gt;" style="whiteSpace=wrap;html=1;" parent="1" vertex="1">
          <mxGeometry x="422" y="313" width="120" height="180" as="geometry" />
        </mxCell>
        <mxCell id="qMudk2F243AdnrHXbzsQ-4" value="0xA0000000&lt;div&gt;&lt;br&gt;&lt;div&gt;0xA0000001&lt;/div&gt;&lt;div&gt;&lt;span style=&quot;background-color: initial;&quot;&gt;...&lt;/span&gt;&lt;br&gt;&lt;/div&gt;&lt;div&gt;&lt;span style=&quot;background-color: initial;&quot;&gt;&lt;br&gt;&lt;/span&gt;&lt;/div&gt;&lt;div&gt;&lt;span style=&quot;background-color: initial;&quot;&gt;0xA004AFFE&lt;/span&gt;&lt;br&gt;&lt;/div&gt;&lt;div&gt;&lt;br&gt;&lt;/div&gt;&lt;div&gt;&lt;div&gt;0xA004AFFF&lt;/div&gt;&lt;/div&gt;&lt;/div&gt;" style="whiteSpace=wrap;html=1;" parent="1" vertex="1">
          <mxGeometry x="442" y="353" width="80" height="120" as="geometry" />
        </mxCell>
        <mxCell id="qMudk2F243AdnrHXbzsQ-6" style="edgeStyle=none;rounded=0;orthogonalLoop=1;jettySize=auto;html=1;exitX=0;exitY=0.5;exitDx=0;exitDy=0;entryX=1;entryY=0.5;entryDx=0;entryDy=0;endArrow=none;endFill=0;" parent="1" edge="1">
          <mxGeometry relative="1" as="geometry">
            <mxPoint x="442" y="402.71000000000004" as="sourcePoint" />
            <mxPoint x="522" y="402.71000000000004" as="targetPoint" />
          </mxGeometry>
        </mxCell>
        <mxCell id="qMudk2F243AdnrHXbzsQ-7" style="edgeStyle=none;rounded=0;orthogonalLoop=1;jettySize=auto;html=1;exitX=0.004;exitY=0.205;exitDx=0;exitDy=0;entryX=1.001;entryY=0.205;entryDx=0;entryDy=0;endArrow=none;endFill=0;exitPerimeter=0;entryPerimeter=0;" parent="1" source="qMudk2F243AdnrHXbzsQ-4" target="qMudk2F243AdnrHXbzsQ-4" edge="1">
          <mxGeometry relative="1" as="geometry">
            <mxPoint x="442" y="383" as="sourcePoint" />
            <mxPoint x="522" y="383" as="targetPoint" />
          </mxGeometry>
        </mxCell>
        <mxCell id="qMudk2F243AdnrHXbzsQ-8" style="edgeStyle=none;rounded=0;orthogonalLoop=1;jettySize=auto;html=1;exitX=0.004;exitY=0.801;exitDx=0;exitDy=0;entryX=0.994;entryY=0.801;entryDx=0;entryDy=0;endArrow=none;endFill=0;exitPerimeter=0;entryPerimeter=0;" parent="1" source="qMudk2F243AdnrHXbzsQ-4" target="qMudk2F243AdnrHXbzsQ-4" edge="1">
          <mxGeometry relative="1" as="geometry">
            <mxPoint x="442" y="443" as="sourcePoint" />
            <mxPoint x="522" y="443" as="targetPoint" />
          </mxGeometry>
        </mxCell>
        <mxCell id="qMudk2F243AdnrHXbzsQ-9" style="edgeStyle=none;rounded=0;orthogonalLoop=1;jettySize=auto;html=1;exitX=-0.003;exitY=0.559;exitDx=0;exitDy=0;entryX=0.989;entryY=0.558;entryDx=0;entryDy=0;endArrow=none;endFill=0;exitPerimeter=0;entryPerimeter=0;" parent="1" source="qMudk2F243AdnrHXbzsQ-4" target="qMudk2F243AdnrHXbzsQ-4" edge="1">
          <mxGeometry relative="1" as="geometry">
            <mxPoint x="442" y="423" as="sourcePoint" />
            <mxPoint x="522" y="423" as="targetPoint" />
          </mxGeometry>
        </mxCell>
        <mxCell id="qMudk2F243AdnrHXbzsQ-54" style="edgeStyle=none;rounded=0;orthogonalLoop=1;jettySize=auto;html=1;exitX=1;exitY=0.451;exitDx=0;exitDy=0;exitPerimeter=0;" parent="1" source="qMudk2F243AdnrHXbzsQ-11" edge="1">
          <mxGeometry relative="1" as="geometry">
            <mxPoint x="954" y="561" as="targetPoint" />
          </mxGeometry>
        </mxCell>
        <mxCell id="qMudk2F243AdnrHXbzsQ-11" value="&lt;blockquote style=&quot;margin: 0 0 0 40px; border: none; padding: 0px;&quot;&gt;&lt;div&gt;&lt;b&gt;&lt;font size=&quot;3&quot;&gt;&lt;span style=&quot;white-space: pre;&quot;&gt;&#x9;&lt;/span&gt;HSYNC BLOCK&lt;/font&gt;&lt;/b&gt;&lt;/div&gt;&lt;b&gt;always @ (posedge clk)&lt;/b&gt;&lt;div&gt;&lt;b&gt;case(state)&lt;/b&gt;&lt;/div&gt;&lt;div&gt;&lt;b&gt;SYNC&lt;/b&gt;:&lt;/div&gt;&lt;div&gt;&lt;b&gt;&lt;span style=&quot;white-space: pre;&quot;&gt;&#x9;&lt;/span&gt;if &lt;/b&gt;(h_count&amp;lt;96)&lt;/div&gt;&lt;div&gt;&lt;span style=&quot;white-space: pre;&quot;&gt;&#x9;&lt;/span&gt;&lt;span style=&quot;white-space: pre;&quot;&gt;&#x9;&lt;/span&gt;h_count++&lt;/div&gt;&lt;div&gt;&lt;b&gt;&lt;span style=&quot;white-space: pre;&quot;&gt;&#x9;&lt;/span&gt;else&lt;/b&gt;&amp;nbsp;&lt;/div&gt;&lt;div&gt;&lt;span style=&quot;white-space: pre;&quot;&gt;&#x9;&lt;/span&gt;&lt;span style=&quot;white-space: pre;&quot;&gt;&#x9;&lt;/span&gt;h_count &amp;lt;= 0&lt;/div&gt;&lt;div&gt;&lt;span style=&quot;white-space: pre;&quot;&gt;&#x9;&lt;/span&gt;&lt;span style=&quot;white-space: pre;&quot;&gt;&#x9;&lt;/span&gt;HSYNC &amp;lt;= 1&lt;/div&gt;&lt;div&gt;&lt;span style=&quot;white-space: pre;&quot;&gt;&#x9;&lt;/span&gt;&lt;span style=&quot;white-space: pre;&quot;&gt;&#x9;&lt;/span&gt;state &amp;lt;= BACKPORCH&lt;/div&gt;&lt;div&gt;&lt;b&gt;BACKPORCH:&lt;/b&gt;&lt;/div&gt;&lt;div&gt;&lt;b&gt;&lt;span style=&quot;white-space: pre;&quot;&gt;&#x9;&lt;/span&gt;if&amp;nbsp;&lt;/b&gt;(h_count &amp;lt; 48)&lt;/div&gt;&lt;div&gt;&lt;span style=&quot;white-space: pre;&quot;&gt;&#x9;&lt;/span&gt;&lt;span style=&quot;white-space: pre;&quot;&gt;&#x9;&lt;/span&gt;h_count++&lt;/div&gt;&lt;div&gt;&lt;b&gt;&lt;span style=&quot;white-space: pre;&quot;&gt;&#x9;&lt;/span&gt;else&lt;/b&gt;&lt;/div&gt;&lt;div&gt;&lt;span style=&quot;white-space: pre;&quot;&gt;&#x9;&lt;/span&gt;&lt;span style=&quot;white-space: pre;&quot;&gt;&#x9;&lt;/span&gt;h_count &amp;lt;= 0&lt;/div&gt;&lt;div&gt;&lt;span style=&quot;white-space: pre;&quot;&gt;&#x9;&lt;/span&gt;&lt;span style=&quot;white-space: pre;&quot;&gt;&#x9;&lt;/span&gt;state &amp;lt;= ACTIVE&lt;/div&gt;&lt;div&gt;&lt;b&gt;ACTIVE:&lt;/b&gt;&lt;/div&gt;&lt;div&gt;&lt;b&gt;&lt;span style=&quot;white-space: pre;&quot;&gt;&#x9;&lt;/span&gt;if&lt;/b&gt; (h_count &amp;lt; 640)&amp;nbsp;&lt;/div&gt;&lt;div&gt;&amp;nbsp;&lt;span style=&quot;white-space: pre;&quot;&gt;&#x9;&lt;/span&gt;&lt;span style=&quot;white-space: pre;&quot;&gt;&#x9;&lt;/span&gt;h_count++&lt;/div&gt;&lt;div&gt;&lt;b style=&quot;background-color: initial;&quot;&gt;&lt;span style=&quot;white-space: pre;&quot;&gt;&#x9;&lt;span style=&quot;white-space: pre;&quot;&gt;&#x9;&lt;/span&gt;&lt;/span&gt;if &lt;/b&gt;&lt;span style=&quot;background-color: initial;&quot;&gt;(data_en_v)&amp;nbsp;&lt;/span&gt;&lt;/div&gt;&lt;div&gt;&lt;span style=&quot;white-space: pre;&quot;&gt;&#x9;&lt;/span&gt;&lt;span style=&quot;white-space: pre;&quot;&gt;&#x9;&lt;span style=&quot;white-space: pre;&quot;&gt;&#x9;&lt;/span&gt;&lt;/span&gt;data_en &amp;lt;= 1&lt;/div&gt;&lt;div&gt;&lt;span style=&quot;white-space: pre;&quot;&gt;&#x9;&lt;/span&gt;&lt;span style=&quot;white-space: pre;&quot;&gt;&#x9;&lt;span style=&quot;white-space: pre;&quot;&gt;&#x9;&lt;/span&gt;&lt;/span&gt;read_offset++&lt;/div&gt;&lt;div&gt;&lt;b&gt;&lt;span style=&quot;white-space: pre;&quot;&gt;&#x9;&lt;/span&gt;else&amp;nbsp;&lt;/b&gt;&lt;/div&gt;&lt;div&gt;&lt;span style=&quot;white-space: pre;&quot;&gt;&#x9;&lt;/span&gt;&lt;span style=&quot;white-space: pre;&quot;&gt;&#x9;&lt;/span&gt;h_count &amp;lt;= 0&lt;/div&gt;&lt;div&gt;&lt;span style=&quot;white-space: pre;&quot;&gt;&#x9;&lt;/span&gt;&lt;span style=&quot;white-space: pre;&quot;&gt;&#x9;&lt;/span&gt;state &amp;lt;= FRONTPORCH&lt;/div&gt;&lt;div&gt;&lt;b&gt;FRONTPORCH:&lt;/b&gt;&lt;/div&gt;&lt;div&gt;&lt;b&gt;&lt;span style=&quot;white-space: pre;&quot;&gt;&#x9;&lt;/span&gt;if &lt;/b&gt;(h_count &amp;lt; 16)&lt;/div&gt;&lt;div&gt;&lt;span style=&quot;white-space: pre;&quot;&gt;&#x9;&lt;/span&gt;&lt;span style=&quot;white-space: pre;&quot;&gt;&#x9;&lt;/span&gt;h_count++&lt;/div&gt;&lt;div&gt;&lt;b&gt;&lt;span style=&quot;white-space: pre;&quot;&gt;&#x9;&lt;/span&gt;else&lt;/b&gt;&lt;/div&gt;&lt;div&gt;&lt;span style=&quot;white-space: pre;&quot;&gt;&#x9;&lt;/span&gt;&lt;span style=&quot;white-space: pre;&quot;&gt;&#x9;&lt;/span&gt;h_count &amp;lt;= 0&lt;/div&gt;&lt;div&gt;&lt;span style=&quot;white-space: pre;&quot;&gt;&#x9;&lt;/span&gt;&lt;span style=&quot;white-space: pre;&quot;&gt;&#x9;&lt;/span&gt;v_count ++&lt;/div&gt;&lt;div&gt;&lt;span style=&quot;white-space: pre;&quot;&gt;&#x9;&lt;span style=&quot;white-space: pre;&quot;&gt;&#x9;&lt;/span&gt;&lt;/span&gt;state &amp;lt;= SYNC&lt;/div&gt;&lt;div&gt;&lt;b&gt;default: SYNC&lt;/b&gt;&lt;/div&gt;&lt;div&gt;&lt;b&gt;&lt;br&gt;&lt;/b&gt;&lt;/div&gt;&lt;div&gt;&lt;b&gt;&lt;br&gt;&lt;/b&gt;&lt;/div&gt;&lt;/blockquote&gt;&lt;div&gt;&lt;b&gt;&lt;br&gt;&lt;/b&gt;&lt;/div&gt;" style="whiteSpace=wrap;html=1;align=left;" parent="1" vertex="1">
          <mxGeometry x="632" y="313" width="240" height="550" as="geometry" />
        </mxCell>
        <mxCell id="qMudk2F243AdnrHXbzsQ-12" value="" style="triangle;whiteSpace=wrap;html=1;" parent="1" vertex="1">
          <mxGeometry x="632" y="823" width="30" height="40" as="geometry" />
        </mxCell>
        <mxCell id="qMudk2F243AdnrHXbzsQ-13" value="" style="ellipse;whiteSpace=wrap;html=1;" parent="1" vertex="1">
          <mxGeometry x="637" y="863" width="20" height="20" as="geometry" />
        </mxCell>
        <mxCell id="qMudk2F243AdnrHXbzsQ-15" style="edgeStyle=none;rounded=0;orthogonalLoop=1;jettySize=auto;html=1;exitX=1;exitY=0.5;exitDx=0;exitDy=0;strokeWidth=2;" parent="1" edge="1">
          <mxGeometry relative="1" as="geometry">
            <mxPoint x="952" y="353.0344827586207" as="targetPoint" />
            <mxPoint x="872" y="353" as="sourcePoint" />
          </mxGeometry>
        </mxCell>
        <mxCell id="qMudk2F243AdnrHXbzsQ-17" value="Data" style="text;html=1;align=center;verticalAlign=middle;resizable=0;points=[];autosize=1;strokeColor=none;fillColor=none;strokeWidth=2;" parent="1" vertex="1">
          <mxGeometry x="882" y="323" width="50" height="30" as="geometry" />
        </mxCell>
        <mxCell id="qMudk2F243AdnrHXbzsQ-28" value="&lt;blockquote style=&quot;margin: 0 0 0 40px; border: none; padding: 0px;&quot;&gt;&lt;b&gt;&lt;font style=&quot;font-size: 14px;&quot;&gt;&lt;span style=&quot;white-space: pre;&quot;&gt;&#x9;&lt;/span&gt;VSYNC BLOCK:&lt;/font&gt;&lt;/b&gt;&lt;div&gt;&lt;b&gt;case(state)&lt;/b&gt;&lt;/div&gt;&lt;div&gt;&lt;b&gt;SYNC:&lt;/b&gt;&lt;/div&gt;&lt;div&gt;&lt;div&gt;&lt;span style=&quot;white-space: pre;&quot;&gt;&#x9;&lt;/span&gt;data_en=0&lt;/div&gt;&lt;/div&gt;&lt;div&gt;&lt;div&gt;&lt;span style=&quot;white-space: pre;&quot;&gt;&#x9;&lt;/span&gt;data_en_v = 0&lt;/div&gt;&lt;/div&gt;&lt;div&gt;&lt;div&gt;&lt;span style=&quot;white-space: pre;&quot;&gt;&#x9;&lt;/span&gt;VSYNC = 0&lt;/div&gt;&lt;/div&gt;&lt;div&gt;&lt;div&gt;&lt;div&gt;&lt;b&gt;&lt;span style=&quot;white-space: pre;&quot;&gt;&#x9;&lt;/span&gt;if (v_count == 2)&lt;/b&gt;&lt;/div&gt;&lt;/div&gt;&lt;/div&gt;&lt;div&gt;&lt;div&gt;&lt;div&gt;&lt;span style=&quot;white-space: pre;&quot;&gt;&#x9;&lt;span style=&quot;white-space: pre;&quot;&gt;&#x9;&lt;/span&gt;&lt;/span&gt;v_count = 0&lt;/div&gt;&lt;/div&gt;&lt;/div&gt;&lt;div&gt;&lt;div&gt;&lt;span style=&quot;white-space: pre;&quot;&gt;&#x9;&lt;span style=&quot;white-space: pre;&quot;&gt;&#x9;&lt;/span&gt;&lt;/span&gt;state= BACKPORCH&lt;/div&gt;&lt;/div&gt;&lt;div&gt;&lt;div&gt;&lt;b&gt;BACKPORCH:&lt;/b&gt;&lt;/div&gt;&lt;/div&gt;&lt;div&gt;&lt;div&gt;&lt;span style=&quot;white-space: pre;&quot;&gt;&#x9;&lt;/span&gt;VSYNC = 1&lt;/div&gt;&lt;/div&gt;&lt;div&gt;&lt;div&gt;&lt;div&gt;&lt;div&gt;&lt;b&gt;&lt;span style=&quot;white-space: pre;&quot;&gt;&#x9;&lt;/span&gt;if (v_count == 33)&lt;/b&gt;&lt;/div&gt;&lt;/div&gt;&lt;/div&gt;&lt;/div&gt;&lt;div&gt;&lt;div&gt;&lt;div&gt;&lt;div&gt;&lt;span style=&quot;white-space: pre;&quot;&gt;&#x9;&lt;span style=&quot;white-space: pre;&quot;&gt;&#x9;&lt;/span&gt;&lt;/span&gt;v_count = 0&lt;/div&gt;&lt;/div&gt;&lt;/div&gt;&lt;/div&gt;&lt;div&gt;&lt;div&gt;&lt;div&gt;&lt;span style=&quot;white-space: pre;&quot;&gt;&#x9;&lt;span style=&quot;white-space: pre;&quot;&gt;&#x9;&lt;/span&gt;&lt;/span&gt;state = ACTIVE&lt;/div&gt;&lt;/div&gt;&lt;/div&gt;&lt;div&gt;&lt;div&gt;&lt;b&gt;ACTIVE:&lt;/b&gt;&lt;/div&gt;&lt;/div&gt;&lt;div&gt;&lt;div&gt;&lt;span style=&quot;white-space: pre;&quot;&gt;&#x9;&lt;/span&gt;data_en_v = 1&lt;/div&gt;&lt;/div&gt;&lt;div&gt;&lt;div&gt;&lt;div&gt;&lt;div&gt;&lt;b&gt;&lt;span style=&quot;white-space: pre;&quot;&gt;&#x9;&lt;/span&gt;if (v_count == 480)&lt;/b&gt;&lt;/div&gt;&lt;/div&gt;&lt;/div&gt;&lt;/div&gt;&lt;div&gt;&lt;div&gt;&lt;div&gt;&lt;div&gt;&lt;span style=&quot;white-space: pre;&quot;&gt;&#x9;&lt;/span&gt;&lt;span style=&quot;white-space: pre;&quot;&gt;&#x9;&lt;/span&gt;v_count = 0&lt;/div&gt;&lt;/div&gt;&lt;/div&gt;&lt;/div&gt;&lt;div&gt;&lt;div&gt;&lt;div&gt;&lt;span style=&quot;white-space: pre;&quot;&gt;&#x9;&lt;/span&gt;&lt;span style=&quot;white-space: pre;&quot;&gt;&#x9;&lt;/span&gt;state = FRONTPORCH&lt;/div&gt;&lt;/div&gt;&lt;/div&gt;&lt;div&gt;&lt;div&gt;&lt;b&gt;FRONTPORCH:&lt;/b&gt;&lt;/div&gt;&lt;/div&gt;&lt;div&gt;&lt;div&gt;&lt;span style=&quot;white-space: pre;&quot;&gt;&#x9;&lt;/span&gt;data_en_v = 0&lt;/div&gt;&lt;/div&gt;&lt;div&gt;&lt;div&gt;&lt;div&gt;&lt;b&gt;&lt;span style=&quot;white-space: pre;&quot;&gt;&#x9;&lt;/span&gt;if (v_count == 10)&lt;/b&gt;&lt;/div&gt;&lt;/div&gt;&lt;/div&gt;&lt;div&gt;&lt;div&gt;&lt;div&gt;&lt;span style=&quot;white-space: pre;&quot;&gt;&#x9;&lt;/span&gt;&lt;span style=&quot;white-space: pre;&quot;&gt;&#x9;&lt;/span&gt;v_count = 0&lt;/div&gt;&lt;/div&gt;&lt;/div&gt;&lt;div&gt;&lt;div&gt;&lt;span style=&quot;white-space: pre;&quot;&gt;&#x9;&lt;/span&gt;&lt;span style=&quot;white-space: pre;&quot;&gt;&#x9;&lt;/span&gt;read_offset = 0&lt;/div&gt;&lt;/div&gt;&lt;div&gt;&lt;div&gt;&lt;span style=&quot;white-space: pre;&quot;&gt;&#x9;&lt;/span&gt;&lt;span style=&quot;white-space: pre;&quot;&gt;&#x9;&lt;/span&gt;state = SYNC&lt;/div&gt;&lt;/div&gt;&lt;div&gt;&lt;div&gt;&lt;b&gt;default: SYNC&lt;/b&gt;&lt;/div&gt;&lt;/div&gt;&lt;div&gt;&lt;b&gt;&lt;br&gt;&lt;/b&gt;&lt;/div&gt;&lt;/blockquote&gt;" style="whiteSpace=wrap;html=1;align=left;" parent="1" vertex="1">
          <mxGeometry x="954.5" y="403" width="270" height="400" as="geometry" />
        </mxCell>
        <mxCell id="qMudk2F243AdnrHXbzsQ-29" style="edgeStyle=none;rounded=0;orthogonalLoop=1;jettySize=auto;html=1;strokeWidth=2;" parent="1" edge="1">
          <mxGeometry relative="1" as="geometry">
            <mxPoint x="949.5" y="322.0344827586207" as="targetPoint" />
            <mxPoint x="872" y="322" as="sourcePoint" />
          </mxGeometry>
        </mxCell>
        <mxCell id="qMudk2F243AdnrHXbzsQ-31" style="edgeStyle=none;rounded=0;orthogonalLoop=1;jettySize=auto;html=1;exitX=1;exitY=0.5;exitDx=0;exitDy=0;strokeWidth=2;" parent="1" edge="1">
          <mxGeometry relative="1" as="geometry">
            <mxPoint x="1304.5" y="481.0344827586207" as="targetPoint" />
            <mxPoint x="1224.5" y="481" as="sourcePoint" />
          </mxGeometry>
        </mxCell>
        <mxCell id="qMudk2F243AdnrHXbzsQ-33" value="HSYNC" style="text;html=1;align=center;verticalAlign=middle;resizable=0;points=[];autosize=1;strokeColor=none;fillColor=none;strokeWidth=2;" parent="1" vertex="1">
          <mxGeometry x="872" y="293" width="70" height="30" as="geometry" />
        </mxCell>
        <mxCell id="qMudk2F243AdnrHXbzsQ-34" value="VSYNC" style="text;html=1;align=center;verticalAlign=middle;resizable=0;points=[];autosize=1;strokeColor=none;fillColor=none;strokeWidth=2;" parent="1" vertex="1">
          <mxGeometry x="1232" y="443" width="60" height="30" as="geometry" />
        </mxCell>
        <mxCell id="qMudk2F243AdnrHXbzsQ-38" value="" style="triangle;whiteSpace=wrap;html=1;" parent="1" vertex="1">
          <mxGeometry x="954.5" y="763" width="30" height="40" as="geometry" />
        </mxCell>
        <mxCell id="qMudk2F243AdnrHXbzsQ-39" value="" style="ellipse;whiteSpace=wrap;html=1;" parent="1" vertex="1">
          <mxGeometry x="959.5" y="803" width="20" height="20" as="geometry" />
        </mxCell>
        <mxCell id="qMudk2F243AdnrHXbzsQ-43" value="" style="endArrow=classic;html=1;rounded=0;exitX=0.5;exitY=0;exitDx=0;exitDy=0;entryX=0.5;entryY=0;entryDx=0;entryDy=0;" parent="1" source="qMudk2F243AdnrHXbzsQ-28" target="qMudk2F243AdnrHXbzsQ-11" edge="1">
          <mxGeometry width="50" height="50" relative="1" as="geometry">
            <mxPoint x="964.5" y="353" as="sourcePoint" />
            <mxPoint x="1014.5" y="303" as="targetPoint" />
            <Array as="points">
              <mxPoint x="1089.5" y="233" />
              <mxPoint x="752.5" y="233" />
            </Array>
          </mxGeometry>
        </mxCell>
        <mxCell id="qMudk2F243AdnrHXbzsQ-44" value="data_en_v" style="text;html=1;align=center;verticalAlign=middle;resizable=0;points=[];autosize=1;strokeColor=none;fillColor=none;" parent="1" vertex="1">
          <mxGeometry x="1084.5" y="353" width="80" height="30" as="geometry" />
        </mxCell>
        <mxCell id="qMudk2F243AdnrHXbzsQ-47" value="v_count" style="text;html=1;align=center;verticalAlign=middle;resizable=0;points=[];autosize=1;strokeColor=none;fillColor=none;" parent="1" vertex="1">
          <mxGeometry x="879" y="536" width="70" height="30" as="geometry" />
        </mxCell>
        <mxCell id="qMudk2F243AdnrHXbzsQ-50" value="" style="endArrow=classic;html=1;rounded=0;entryX=0.5;entryY=0;entryDx=0;entryDy=0;" parent="1" target="qMudk2F243AdnrHXbzsQ-3" edge="1">
          <mxGeometry width="50" height="50" relative="1" as="geometry">
            <mxPoint x="682" y="313" as="sourcePoint" />
            <mxPoint x="732" y="263" as="targetPoint" />
            <Array as="points">
              <mxPoint x="682" y="263" />
              <mxPoint x="682" y="223" />
              <mxPoint x="482" y="223" />
            </Array>
          </mxGeometry>
        </mxCell>
        <mxCell id="qMudk2F243AdnrHXbzsQ-51" value="read_offset" style="text;html=1;align=center;verticalAlign=middle;resizable=0;points=[];autosize=1;strokeColor=none;fillColor=none;" parent="1" vertex="1">
          <mxGeometry x="542" y="181" width="80" height="30" as="geometry" />
        </mxCell>
        <mxCell id="qMudk2F243AdnrHXbzsQ-52" value="" style="endArrow=none;html=1;rounded=0;" parent="1" edge="1">
          <mxGeometry width="50" height="50" relative="1" as="geometry">
            <mxPoint x="572" y="233" as="sourcePoint" />
            <mxPoint x="592" y="211" as="targetPoint" />
          </mxGeometry>
        </mxCell>
        <mxCell id="qMudk2F243AdnrHXbzsQ-53" value="[18:0]" style="text;html=1;align=center;verticalAlign=middle;resizable=0;points=[];autosize=1;strokeColor=none;fillColor=none;" parent="1" vertex="1">
          <mxGeometry x="557" y="231" width="50" height="30" as="geometry" />
        </mxCell>
        <mxCell id="qMudk2F243AdnrHXbzsQ-56" value="" style="endArrow=classic;html=1;rounded=0;entryX=1.004;entryY=0.327;entryDx=0;entryDy=0;entryPerimeter=0;" parent="1" target="qMudk2F243AdnrHXbzsQ-11" edge="1">
          <mxGeometry width="50" height="50" relative="1" as="geometry">
            <mxPoint x="952" y="493" as="sourcePoint" />
            <mxPoint x="992" y="473" as="targetPoint" />
          </mxGeometry>
        </mxCell>
        <mxCell id="qMudk2F243AdnrHXbzsQ-57" value="read_offset" style="text;html=1;align=center;verticalAlign=middle;resizable=0;points=[];autosize=1;strokeColor=none;fillColor=none;" parent="1" vertex="1">
          <mxGeometry x="872" y="453" width="80" height="30" as="geometry" />
        </mxCell>
        <mxCell id="qMudk2F243AdnrHXbzsQ-58" value="" style="endArrow=none;html=1;rounded=0;" parent="1" edge="1">
          <mxGeometry width="50" height="50" relative="1" as="geometry">
            <mxPoint x="902" y="505" as="sourcePoint" />
            <mxPoint x="922" y="483" as="targetPoint" />
          </mxGeometry>
        </mxCell>
        <mxCell id="qMudk2F243AdnrHXbzsQ-59" value="[18:0]" style="text;html=1;align=center;verticalAlign=middle;resizable=0;points=[];autosize=1;strokeColor=none;fillColor=none;" parent="1" vertex="1">
          <mxGeometry x="902" y="493" width="50" height="30" as="geometry" />
        </mxCell>
        <mxCell id="Wb2i4A5yENhCW2OPsdJP-1" value="&lt;font style=&quot;font-size: 48px;&quot;&gt;MAY NEED&lt;/font&gt;&lt;div&gt;&lt;font style=&quot;font-size: 48px;&quot;&gt;TO ALTER&lt;/font&gt;&lt;/div&gt;&lt;div&gt;&lt;font style=&quot;font-size: 48px;&quot;&gt;MEMORY,&amp;nbsp;&lt;/font&gt;&lt;/div&gt;&lt;div&gt;&lt;font style=&quot;font-size: 48px;&quot;&gt;add reset too&lt;/font&gt;&lt;/div&gt;" style="text;html=1;align=center;verticalAlign=middle;resizable=0;points=[];autosize=1;strokeColor=none;fillColor=none;" parent="1" vertex="1">
          <mxGeometry x="236" y="531" width="298" height="242" as="geometry" />
        </mxCell>
      </root>
    </mxGraphModel>
  </diagram>
</mxfile>
